<?xml version="1.0" encoding="UTF-8" standalone="no"?>
<svg
   xmlns:dc="http://purl.org/dc/elements/1.1/"
   xmlns:cc="http://creativecommons.org/ns#"
   xmlns:rdf="http://www.w3.org/1999/02/22-rdf-syntax-ns#"
   xmlns:svg="http://www.w3.org/2000/svg"
   xmlns="http://www.w3.org/2000/svg"
   xmlns:sodipodi="http://sodipodi.sourceforge.net/DTD/sodipodi-0.dtd"
   xmlns:inkscape="http://www.inkscape.org/namespaces/inkscape"
   height="67px"
   id="Layer_1"
   style="enable-background:new 0 0 67 67;"
   version="1.1"
   viewBox="0 0 67 67"
   width="67px"
   xml:space="preserve"
   inkscape:version="0.91 r"
   sodipodi:docname="icon-linkedin.svg"><metadata
     id="metadata3493"><rdf:RDF><cc:Work
         rdf:about=""><dc:format>image/svg+xml</dc:format><dc:type
           rdf:resource="http://purl.org/dc/dcmitype/StillImage" /></cc:Work></rdf:RDF></metadata><defs
     id="defs3491" /><sodipodi:namedview
     pagecolor="#ffffff"
     bordercolor="#666666"
     borderopacity="1"
     objecttolerance="10"
     gridtolerance="10"
     guidetolerance="10"
     inkscape:pageopacity="0"
     inkscape:pageshadow="2"
     inkscape:window-width="710"
     inkscape:window-height="480"
     id="namedview3489"
     showgrid="false"
     inkscape:zoom="3.5223881"
     inkscape:cx="33.5"
     inkscape:cy="33.5"
     inkscape:window-x="650"
     inkscape:window-y="3"
     inkscape:window-maximized="0"
     inkscape:current-layer="Layer_1" /><path
     d="M49.837,48.137V36.425c0-6.275-3.35-9.195-7.816-9.195  c-3.604,0-5.219,1.983-6.119,3.374V27.71h-6.79c0.09,1.917,0,20.427,0,20.427h6.79V36.729c0-0.609,0.044-1.219,0.224-1.655  c0.49-1.22,1.607-2.483,3.482-2.483c2.458,0,3.44,1.873,3.44,4.618v10.929H49.837z M21.959,24.922c2.367,0,3.842-1.57,3.842-3.531  c-0.044-2.003-1.475-3.528-3.797-3.528s-3.841,1.524-3.841,3.528c0,1.961,1.474,3.531,3.753,3.531H21.959z M33,64  C16.432,64,3,50.568,3,34C3,17.431,16.432,4,33,4s30,13.431,30,30C63,50.568,49.568,64,33,64z M25.354,48.137V27.71h-6.789v20.427  H25.354z"
     style="fill-rule:evenodd;clip-rule:evenodd;fill:#828282;fill-opacity:1"
     id="path3487" /></svg>